{
  "accessors": [
    {
      "bufferView": 2,
      "componentType": 5126,
      "count": 38,
      "max": [
        0.18694500625133514,
        0.027691999450325966,
        0.50478100776672363
      ],
      "min": [
        0.1693589985370636,
        -0.029802000150084496,
        0.17404800653457642
      ],
      "type": "VEC3"
    },
    {
      "bufferView": 2,
      "byteOffset": 456,
      "componentType": 5126,
      "count": 38,
      "max": [
        0.99994862079620361,
        0.52848213911056519,
        0.61060422658920288
      ],
      "min": [
        -0.99907130002975464,
        -0.47901788353919983,
        -0.36410188674926758
      ],
      "type": "VEC3"
    },
    {
      "bufferView": 1,
      "componentType": 5126,
      "count": 38,
      "max": [
        0.98350000381469727,
        1.9026999473571777
      ],
      "min": [
        0.017500000074505806,
        1.0923999547958374
      ],
      "type": "VEC2"
    },
    {
      "bufferView": 0,
      "componentType": 5125,
      "count": 96,
      "max": [
        37
      ],
      "min": [
        0
      ],
      "type": "SCALAR"
    },
    {
      "bufferView": 2,
      "byteOffset": 912,
      "componentType": 5126,
      "count": 39,
      "max": [
        -0.1693589985370636,
        0.027692999690771103,
        0.50478601455688477
      ],
      "min": [
        -0.18694800138473511,
        -0.029800999909639359,
        0.1740490049123764
      ],
      "type": "VEC3"
    },
    {
      "bufferView": 2,
      "byteOffset": 1380,
      "componentType": 5126,
      "count": 39,
      "max": [
        0.99907201528549194,
        0.52851963043212891,
        0.61032199859619141
      ],
      "min": [
        -0.99994862079620361,
        -0.47910547256469727,
        -0.36410188674926758
      ],
      "type": "VEC3"
    },
    {
      "bufferView": 1,
      "byteOffset": 304,
      "componentType": 5126,
      "count": 39,
      "max": [
        0.98350000381469727,
        1.9026999473571777
      ],
      "min": [
        0.017500000074505806,
        1.0923999547958374
      ],
      "type": "VEC2"
    },
    {
      "bufferView": 0,
      "byteOffset": 384,
      "componentType": 5125,
      "count": 96,
      "max": [
        38
      ],
      "min": [
        0
      ],
      "type": "SCALAR"
    },
    {
      "bufferView": 2,
      "byteOffset": 1848,
      "componentType": 5126,
      "count": 343,
      "max": [
        -0.075626000761985779,
        0.021819999441504478,
        0.56052297353744507
      ],
      "min": [
        -0.11731299757957458,
        -0.039331000298261642,
        0.40807101130485535
      ],
      "type": "VEC3"
    },
    {
      "bufferView": 2,
      "byteOffset": 5964,
      "componentType": 5126,
      "count": 343,
      "max": [
        0.99749869108200073,
        0.99788713455200195,
        0.99951475858688354
      ],
      "min": [
        -0.99088048934936523,
        -0.99938702583312988,
        -0.99929451942443848
      ],
      "type": "VEC3"
    },
    {
      "bufferView": 1,
      "byteOffset": 616,
      "componentType": 5126,
      "count": 343,
      "max": [
        0.99144101142883301,
        1.9849569797515869
      ],
      "min": [
        0.0064099999144673347,
        1.0104140043258667
      ],
      "type": "VEC2"
    },
    {
      "bufferView": 0,
      "byteOffset": 768,
      "componentType": 5125,
      "count": 690,
      "max": [
        342
      ],
      "min": [
        0
      ],
      "type": "SCALAR"
    },
    {
      "bufferView": 2,
      "byteOffset": 10080,
      "componentType": 5126,
      "count": 3477,
      "max": [
        0.10072100162506104,
        0.078438997268676758,
        0.90740901231765747
      ],
      "min": [
        -0.26772499084472656,
        -0.059955999255180359,
        -0.00040799999260343611
      ],
      "type": "VEC3"
    },
    {
      "bufferView": 2,
      "byteOffset": 51804,
      "componentType": 5126,
      "count": 3477,
      "max": [
        0.9999006986618042,
        0.99988186359405518,
        0.99992311000823975
      ],
      "min": [
        -0.99991154670715332,
        -0.999900221824646,
        -1
      ],
      "type": "VEC3"
    },
    {
      "bufferView": 1,
      "byteOffset": 3360,
      "componentType": 5126,
      "count": 3477,
      "max": [
        0.99695301055908203,
        1.9964139461517334
      ],
      "min": [
        0.00085399998351931572,
        1.0006610155105591
      ],
      "type": "VEC2"
    },
    {
      "bufferView": 0,
      "byteOffset": 3528,
      "componentType": 5125,
      "count": 11079,
      "max": [
        3476
      ],
      "min": [
        0
      ],
      "type": "SCALAR"
    },
    {
      "bufferView": 2,
      "byteOffset": 93528,
      "componentType": 5126,
      "count": 1178,
      "max": [
        0.26772499084472656,
        0.06921599805355072,
        0.89167797565460205
      ],
      "min": [
        -0.24357399344444275,
        -0.057615999132394791,
        0.06625799834728241
      ],
      "type": "VEC3"
    },
    {
      "bufferView": 2,
      "byteOffset": 107664,
      "componentType": 5126,
      "count": 1178,
      "max": [
        0.99999284744262695,
        0.99857646226882935,
        0.99757683277130127
      ],
      "min": [
        -0.99679487943649292,
        -1,
        -0.99723958969116211
      ],
      "type": "VEC3"
    },
    {
      "bufferView": 1,
      "byteOffset": 31176,
      "componentType": 5126,
      "count": 1178,
      "max": [
        0.99166202545166016,
        1.9944870471954346
      ],
      "min": [
        0.0042059998959302902,
        1.0030009746551514
      ],
      "type": "VEC2"
    },
    {
      "bufferView": 0,
      "byteOffset": 47844,
      "componentType": 5125,
      "count": 3120,
      "max": [
        1177
      ],
      "min": [
        0
      ],
      "type": "SCALAR"
    }
  ],
  "asset": {
    "extras": {
      "author": "Lil_CJ (https://sketchfab.com/calebjean2001)",
      "license": "CC-BY-4.0 (http://creativecommons.org/licenses/by/4.0/)",
      "source": "https://sketchfab.com/3d-models/nebula-8ff9ae2314114196979a2ef2d6dbce3b",
      "title": "Nebula"
    },
    "generator": "Sketchfab-8.9.0",
    "version": "2.0"
  },
  "bufferViews": [
    {
      "buffer": 0,
      "byteLength": 60324,
      "byteOffset": 0,
      "name": "floatBufferViews",
      "target": 34963
    },
    {
      "buffer": 0,
      "byteLength": 40600,
      "byteOffset": 60324,
      "byteStride": 8,
      "name": "floatBufferViews",
      "target": 34962
    },
    {
      "buffer": 0,
      "byteLength": 121800,
      "byteOffset": 100924,
      "byteStride": 12,
      "name": "floatBufferViews",
      "target": 34962
    }
  ],
  "buffers": [
    {
      "byteLength": 222724,
      "uri": "sceneNebula.bin"
    }
  ],
  "images": [
    {
      "uri": "texturesNebula/40_-Nebulawp1.Nebulawp1_1_0_0_baseColor.png"
    },
    {
      "uri": "texturesNebula/40_-Nebulawp.Nebulawp_1_0_0_metallicRoughness.png"
    },
    {
      "uri": "texturesNebula/40_-svnebula03wp02.svnebula03wp02_1_0_0_baseColor.png"
    },
    {
      "uri": "texturesNebula/40_-svnebula03wp02.svnebula03wp02_1_0_0_metallicRoughness.png"
    },
    {
      "uri": "texturesNebula/40_svnebula0301_1_0_0_baseColor.png"
    },
    {
      "uri": "texturesNebula/40_svnebula0301_1_0_0_metallicRoughness.png"
    },
    {
      "uri": "texturesNebula/40_svnebula0302_1_0_0_baseColor.png"
    },
    {
      "uri": "texturesNebula/40_svnebula0302_1_0_0_metallicRoughness.png"
    }
  ],
  "materials": [
    {
      "doubleSided": true,
      "name": "40_-Nebulawp1.Nebulawp1_1_0_0",
      "pbrMetallicRoughness": {
        "baseColorFactor": [
          1,
          1,
          1,
          1
        ],
        "baseColorTexture": {
          "index": 0,
          "texCoord": 0
        },
        "metallicFactor": 0,
        "roughnessFactor": 0.59999999999999998
      }
    },
    {
      "doubleSided": true,
      "name": "40_-Nebulawp.Nebulawp_1_0_0",
      "pbrMetallicRoughness": {
        "baseColorFactor": [
          1,
          1,
          1,
          1
        ],
        "baseColorTexture": {
          "index": 0,
          "texCoord": 0
        },
        "metallicFactor": 1,
        "metallicRoughnessTexture": {
          "index": 1,
          "texCoord": 0
        },
        "roughnessFactor": 0.59999999999999998
      }
    },
    {
      "doubleSided": true,
      "name": "40_-svnebula03wp02.svnebula03wp02_1_0_0",
      "pbrMetallicRoughness": {
        "baseColorFactor": [
          1,
          1,
          1,
          1
        ],
        "baseColorTexture": {
          "index": 2,
          "texCoord": 0
        },
        "metallicFactor": 1,
        "metallicRoughnessTexture": {
          "index": 3,
          "texCoord": 0
        },
        "roughnessFactor": 0.59999999999999998
      }
    },
    {
      "doubleSided": true,
      "name": "40_svnebula0301_1_0_0",
      "pbrMetallicRoughness": {
        "baseColorFactor": [
          1,
          1,
          1,
          1
        ],
        "baseColorTexture": {
          "index": 4,
          "texCoord": 0
        },
        "metallicFactor": 1,
        "metallicRoughnessTexture": {
          "index": 5,
          "texCoord": 0
        },
        "roughnessFactor": 0.59999999999999998
      }
    },
    {
      "doubleSided": true,
      "name": "40_svnebula0302_1_0_0",
      "pbrMetallicRoughness": {
        "baseColorFactor": [
          1,
          1,
          1,
          1
        ],
        "baseColorTexture": {
          "index": 6,
          "texCoord": 0
        },
        "metallicFactor": 1,
        "metallicRoughnessTexture": {
          "index": 7,
          "texCoord": 0
        },
        "roughnessFactor": 0.22122713414634146
      }
    }
  ],
  "meshes": [
    {
      "primitives": [
        {
          "attributes": {
            "NORMAL": 1,
            "POSITION": 0,
            "TEXCOORD_0": 2
          },
          "indices": 3,
          "material": 0,
          "mode": 4
        }
      ]
    },
    {
      "primitives": [
        {
          "attributes": {
            "NORMAL": 5,
            "POSITION": 4,
            "TEXCOORD_0": 6
          },
          "indices": 7,
          "material": 1,
          "mode": 4
        }
      ]
    },
    {
      "primitives": [
        {
          "attributes": {
            "NORMAL": 9,
            "POSITION": 8,
            "TEXCOORD_0": 10
          },
          "indices": 11,
          "material": 2,
          "mode": 4
        }
      ]
    },
    {
      "primitives": [
        {
          "attributes": {
            "NORMAL": 13,
            "POSITION": 12,
            "TEXCOORD_0": 14
          },
          "indices": 15,
          "material": 3,
          "mode": 4
        }
      ]
    },
    {
      "primitives": [
        {
          "attributes": {
            "NORMAL": 17,
            "POSITION": 16,
            "TEXCOORD_0": 18
          },
          "indices": 19,
          "material": 4,
          "mode": 4
        }
      ]
    }
  ],
  "nodes": [
    {
      "children": [
        1
      ],
      "name": "RootNode (gltf orientation matrix)",
      "rotation": [
        -0.70710678118654746,
        -0,
        -0,
        0.70710678118654757
      ]
    },
    {
      "children": [
        2
      ],
      "name": "RootNode (model correction matrix)"
    },
    {
      "children": [
        3,
        4,
        5,
        6,
        7
      ],
      "name": "0.obj.cleaner.materialmerger.gles"
    },
    {
      "mesh": 0,
      "name": ""
    },
    {
      "mesh": 1,
      "name": ""
    },
    {
      "mesh": 2,
      "name": ""
    },
    {
      "mesh": 3,
      "name": ""
    },
    {
      "mesh": 4,
      "name": ""
    }
  ],
  "samplers": [
    {
      "magFilter": 9729,
      "minFilter": 9987,
      "wrapS": 10497,
      "wrapT": 10497
    }
  ],
  "scene": 0,
  "scenes": [
    {
      "name": "OSG_Scene",
      "nodes": [
        0
      ]
    }
  ],
  "textures": [
    {
      "sampler": 0,
      "source": 0
    },
    {
      "sampler": 0,
      "source": 1
    },
    {
      "sampler": 0,
      "source": 2
    },
    {
      "sampler": 0,
      "source": 3
    },
    {
      "sampler": 0,
      "source": 4
    },
    {
      "sampler": 0,
      "source": 5
    },
    {
      "sampler": 0,
      "source": 6
    },
    {
      "sampler": 0,
      "source": 7
    }
  ]
}

