{
  "accessors": [
    {
      "bufferView": 2,
      "componentType": 5126,
      "count": 3806,
      "max": [
        5.1444168090820312,
        1.1704670190811157,
        3.328239917755127
      ],
      "min": [
        -5.1444191932678223,
        -1.7284719944000244,
        -8.3174200057983398
      ],
      "type": "VEC3"
    },
    {
      "bufferView": 2,
      "byteOffset": 45672,
      "componentType": 5126,
      "count": 3806,
      "max": [
        0.99940401315689087,
        0.999930739402771,
        0.99707221984863281
      ],
      "min": [
        -0.99935632944107056,
        -1,
        -0.99954473972320557
      ],
      "type": "VEC3"
    },
    {
      "bufferView": 3,
      "componentType": 5126,
      "count": 3806,
      "max": [
        0.99999994039535522,
        0.9984900951385498,
        0.9999929666519165,
        1
      ],
      "min": [
        -0.99998927116394043,
        -0.99998831748962402,
        -0.99693489074707031,
        -1
      ],
      "type": "VEC4"
    },
    {
      "bufferView": 1,
      "componentType": 5126,
      "count": 3806,
      "max": [
        0.99219101667404175,
        0.99703401327133179
      ],
      "min": [
        0.0061719999648630619,
        0.010150999762117863
      ],
      "type": "VEC2"
    },
    {
      "bufferView": 0,
      "componentType": 5125,
      "count": 18930,
      "max": [
        3805
      ],
      "min": [
        0
      ],
      "type": "SCALAR"
    },
    {
      "bufferView": 2,
      "byteOffset": 91344,
      "componentType": 5126,
      "count": 884,
      "max": [
        0.29563599824905396,
        -0.4539560079574585,
        2.6576979160308838
      ],
      "min": [
        -0.29591000080108643,
        -0.66957700252532959,
        2.4466989040374756
      ],
      "type": "VEC3"
    },
    {
      "bufferView": 2,
      "byteOffset": 101952,
      "componentType": 5126,
      "count": 884,
      "max": [
        0.99985677003860474,
        0.99782413244247437,
        0.99964666366577148
      ],
      "min": [
        -0.99985677003860474,
        -0.99605250358581543,
        -0.99971663951873779
      ],
      "type": "VEC3"
    },
    {
      "bufferView": 1,
      "byteOffset": 30448,
      "componentType": 5126,
      "count": 884,
      "max": [
        0.31926000118255615,
        0.55904901027679443
      ],
      "min": [
        0.089814998209476471,
        0.42131900787353516
      ],
      "type": "VEC2"
    },
    {
      "bufferView": 0,
      "byteOffset": 75720,
      "componentType": 5125,
      "count": 5040,
      "max": [
        883
      ],
      "min": [
        0
      ],
      "type": "SCALAR"
    },
    {
      "bufferView": 2,
      "byteOffset": 112560,
      "componentType": 5126,
      "count": 1908,
      "max": [
        0.21799600124359131,
        -0.48237699270248413,
        2.3149189949035645
      ],
      "min": [
        -0.21798400580883026,
        -0.70924502611160278,
        2.1074678897857666
      ],
      "type": "VEC3"
    },
    {
      "bufferView": 2,
      "byteOffset": 135456,
      "componentType": 5126,
      "count": 1908,
      "max": [
        0.99986052513122559,
        0.99976664781570435,
        1
      ],
      "min": [
        -0.99986052513122559,
        -0.9999544620513916,
        -1
      ],
      "type": "VEC3"
    },
    {
      "bufferView": 1,
      "byteOffset": 37520,
      "componentType": 5126,
      "count": 1908,
      "max": [
        0.99319398403167725,
        0.11275699734687805
      ],
      "min": [
        0.60716301202774048,
        0.0038429999258369207
      ],
      "type": "VEC2"
    },
    {
      "bufferView": 0,
      "byteOffset": 95880,
      "componentType": 5125,
      "count": 5136,
      "max": [
        1907
      ],
      "min": [
        0
      ],
      "type": "SCALAR"
    }
  ],
  "asset": {
    "extras": {
      "author": "rmarinas (https://sketchfab.com/rmarinas)",
      "license": "CC-BY-4.0 (http://creativecommons.org/licenses/by/4.0/)",
      "source": "https://sketchfab.com/3d-models/hulk-686cd337a6ca40c8ae3c5cb3995c9dcc",
      "title": "Hulk"
    },
    "generator": "Sketchfab-8.26.0",
    "version": "2.0"
  },
  "bufferViews": [
    {
      "buffer": 0,
      "byteLength": 116424,
      "byteOffset": 0,
      "name": "floatBufferViews",
      "target": 34963
    },
    {
      "buffer": 0,
      "byteLength": 52784,
      "byteOffset": 116424,
      "byteStride": 8,
      "name": "floatBufferViews",
      "target": 34962
    },
    {
      "buffer": 0,
      "byteLength": 158352,
      "byteOffset": 169208,
      "byteStride": 12,
      "name": "floatBufferViews",
      "target": 34962
    },
    {
      "buffer": 0,
      "byteLength": 60896,
      "byteOffset": 327560,
      "byteStride": 16,
      "name": "floatBufferViews",
      "target": 34962
    }
  ],
  "buffers": [
    {
      "byteLength": 388456,
      "uri": "sceneHulk.bin"
    }
  ],
  "images": [
    {
      "uri": "texturesHulk/blinn2SG_baseColor.png"
    },
    {
      "uri": "texturesHulk/blinn2SG_metallicRoughness.png"
    },
    {
      "uri": "texturesHulk/lambert3SG_metallicRoughness.png"
    },
    {
      "uri": "texturesHulk/lambert3SG_normal.png"
    }
  ],
  "materials": [
    {
      "doubleSided": true,
      "name": "blinn2SG",
      "pbrMetallicRoughness": {
        "baseColorFactor": [
          1,
          1,
          1,
          1
        ],
        "baseColorTexture": {
          "index": 0,
          "texCoord": 0
        },
        "metallicFactor": 0,
        "metallicRoughnessTexture": {
          "index": 1,
          "texCoord": 0
        },
        "roughnessFactor": 1
      }
    },
    {
      "doubleSided": true,
      "name": "blinn3SG",
      "pbrMetallicRoughness": {
        "baseColorFactor": [
          1,
          1,
          1,
          1
        ],
        "metallicFactor": 0,
        "roughnessFactor": 0.59999999999999998
      }
    },
    {
      "doubleSided": true,
      "name": "lambert3SG",
      "normalTexture": {
        "index": 3,
        "scale": 1,
        "texCoord": 0
      },
      "occlusionTexture": {
        "index": 2,
        "strength": 1,
        "texCoord": 0
      },
      "pbrMetallicRoughness": {
        "baseColorFactor": [
          1,
          1,
          1,
          1
        ],
        "baseColorTexture": {
          "index": 0,
          "texCoord": 0
        },
        "metallicFactor": 0,
        "metallicRoughnessTexture": {
          "index": 2,
          "texCoord": 0
        },
        "roughnessFactor": 1
      }
    }
  ],
  "meshes": [
    {
      "primitives": [
        {
          "attributes": {
            "NORMAL": 1,
            "POSITION": 0,
            "TANGENT": 2,
            "TEXCOORD_0": 3
          },
          "indices": 4,
          "material": 2,
          "mode": 4
        }
      ]
    },
    {
      "primitives": [
        {
          "attributes": {
            "NORMAL": 6,
            "POSITION": 5,
            "TEXCOORD_0": 7
          },
          "indices": 8,
          "material": 0,
          "mode": 4
        }
      ]
    },
    {
      "primitives": [
        {
          "attributes": {
            "NORMAL": 10,
            "POSITION": 9,
            "TEXCOORD_0": 11
          },
          "indices": 12,
          "material": 1,
          "mode": 4
        }
      ]
    }
  ],
  "nodes": [
    {
      "children": [
        1
      ],
      "name": "RootNode (gltf orientation matrix)",
      "rotation": [
        -0.70710678118654746,
        -0,
        -0,
        0.70710678118654757
      ]
    },
    {
      "children": [
        2
      ],
      "name": "RootNode (model correction matrix)"
    },
    {
      "children": [
        3,
        4,
        5
      ],
      "name": "hulkkk.obj.cleaner.materialmerger.gles"
    },
    {
      "mesh": 0,
      "name": ""
    },
    {
      "mesh": 1,
      "name": ""
    },
    {
      "mesh": 2,
      "name": ""
    }
  ],
  "samplers": [
    {
      "magFilter": 9729,
      "minFilter": 9987,
      "wrapS": 10497,
      "wrapT": 10497
    }
  ],
  "scene": 0,
  "scenes": [
    {
      "name": "OSG_Scene",
      "nodes": [
        0
      ]
    }
  ],
  "textures": [
    {
      "sampler": 0,
      "source": 0
    },
    {
      "sampler": 0,
      "source": 1
    },
    {
      "sampler": 0,
      "source": 2
    },
    {
      "sampler": 0,
      "source": 3
    }
  ]
}

