{
  "accessors": [
    {
      "bufferView": 2,
      "componentType": 5126,
      "count": 4,
      "max": [
        167.02890014648438,
        167.02890014648438,
        0
      ],
      "min": [
        -167.02890014648438,
        -167.02890014648438,
        0
      ],
      "type": "VEC3"
    },
    {
      "bufferView": 2,
      "byteOffset": 48,
      "componentType": 5126,
      "count": 4,
      "max": [
        0,
        0,
        1
      ],
      "min": [
        0,
        0,
        1
      ],
      "type": "VEC3"
    },
    {
      "bufferView": 3,
      "componentType": 5126,
      "count": 4,
      "max": [
        1,
        2.3841863594498136e-07,
        0,
        1
      ],
      "min": [
        1,
        1.8270841906087298e-07,
        0,
        1
      ],
      "type": "VEC4"
    },
    {
      "bufferView": 1,
      "componentType": 5126,
      "count": 4,
      "max": [
        1,
        1
      ],
      "min": [
        2.9802322387695312e-08,
        2.9802322387695312e-08
      ],
      "type": "VEC2"
    },
    {
      "bufferView": 0,
      "componentType": 5125,
      "count": 6,
      "max": [
        3
      ],
      "min": [
        0
      ],
      "type": "SCALAR"
    },
    {
      "bufferView": 2,
      "byteOffset": 96,
      "componentType": 5126,
      "count": 21258,
      "max": [
        38.914813995361328,
        37.802387237548828,
        69.217864990234375
      ],
      "min": [
        -38.914813995361328,
        -37.802391052246094,
        15.402618408203125
      ],
      "type": "VEC3"
    },
    {
      "bufferView": 2,
      "byteOffset": 255192,
      "componentType": 5126,
      "count": 21258,
      "max": [
        0.99999672174453735,
        0.99975800514221191,
        1
      ],
      "min": [
        -0.99999696016311646,
        -0.99997609853744507,
        -1
      ],
      "type": "VEC3"
    },
    {
      "bufferView": 3,
      "byteOffset": 64,
      "componentType": 5126,
      "count": 21258,
      "max": [
        1,
        0.99999982118606567,
        0.99997514486312866,
        1
      ],
      "min": [
        -1,
        -0.99999946355819702,
        -0.99992537498474121,
        -1
      ],
      "type": "VEC4"
    },
    {
      "bufferView": 1,
      "byteOffset": 32,
      "componentType": 5126,
      "count": 21258,
      "max": [
        0.9933508038520813,
        0.99949997663497925
      ],
      "min": [
        0.00050000002374872565,
        0.00050000002374872565
      ],
      "type": "VEC2"
    },
    {
      "bufferView": 1,
      "byteOffset": 170096,
      "componentType": 5126,
      "count": 21258,
      "max": [
        7.9839997291564941,
        7.6963043212890625
      ],
      "min": [
        0.016000000759959221,
        0.016000000759959221
      ],
      "type": "VEC2"
    },
    {
      "bufferView": 1,
      "byteOffset": 340160,
      "componentType": 5126,
      "count": 21258,
      "max": [
        0.9933508038520813,
        0.99949997663497925
      ],
      "min": [
        0.00050000002374872565,
        0.00050000002374872565
      ],
      "type": "VEC2"
    },
    {
      "bufferView": 0,
      "byteOffset": 24,
      "componentType": 5125,
      "count": 120498,
      "max": [
        21257
      ],
      "min": [
        0
      ],
      "type": "SCALAR"
    },
    {
      "bufferView": 2,
      "byteOffset": 510288,
      "componentType": 5126,
      "count": 446,
      "max": [
        22.783205032348633,
        25.694629669189453,
        16.242877960205078
      ],
      "min": [
        -22.802927017211914,
        -32.160526275634766,
        -0.020816802978515625
      ],
      "type": "VEC3"
    },
    {
      "bufferView": 2,
      "byteOffset": 515640,
      "componentType": 5126,
      "count": 446,
      "max": [
        0.98414438962936401,
        0.94901186227798462,
        0.45383408665657043
      ],
      "min": [
        -0.98414444923400879,
        -0.97040987014770508,
        -1
      ],
      "type": "VEC3"
    },
    {
      "bufferView": 3,
      "byteOffset": 340192,
      "componentType": 5126,
      "count": 446,
      "max": [
        1,
        0.99956405162811279,
        0.89086872339248657,
        1
      ],
      "min": [
        -0.9958990216255188,
        -0.99952477216720581,
        -0.11038462072610855,
        -1
      ],
      "type": "VEC4"
    },
    {
      "bufferView": 1,
      "byteOffset": 510224,
      "componentType": 5126,
      "count": 446,
      "max": [
        0.70287871360778809,
        0.72224253416061401
      ],
      "min": [
        0.00050000002374872565,
        0.014235160313546658
      ],
      "type": "VEC2"
    },
    {
      "bufferView": 1,
      "byteOffset": 513792,
      "componentType": 5126,
      "count": 446,
      "max": [
        0.81524854898452759,
        0.96982383728027344
      ],
      "min": [
        0.070491507649421692,
        0.17038294672966003
      ],
      "type": "VEC2"
    },
    {
      "bufferView": 0,
      "byteOffset": 482016,
      "componentType": 5125,
      "count": 1080,
      "max": [
        445
      ],
      "min": [
        0
      ],
      "type": "SCALAR"
    }
  ],
  "asset": {
    "extras": {
      "author": "MADE.COM (https://sketchfab.com/made-it)",
      "license": "CC-BY-NC-4.0 (http://creativecommons.org/licenses/by-nc/4.0/)",
      "source": "https://sketchfab.com/3d-models/flick-accent-chair-yolk-yellow-1012215683a74f92add8a3952a3a96c7",
      "title": "Flick Accent Chair, Yolk Yellow"
    },
    "generator": "Sketchfab-4.46.0",
    "version": "2.0"
  },
  "bufferViews": [
    {
      "buffer": 0,
      "byteLength": 486336,
      "byteOffset": 0,
      "name": "floatBufferViews",
      "target": 34963
    },
    {
      "buffer": 0,
      "byteLength": 517360,
      "byteOffset": 486336,
      "byteStride": 8,
      "name": "floatBufferViews",
      "target": 34962
    },
    {
      "buffer": 0,
      "byteLength": 520992,
      "byteOffset": 1003696,
      "byteStride": 12,
      "name": "floatBufferViews",
      "target": 34962
    },
    {
      "buffer": 0,
      "byteLength": 347328,
      "byteOffset": 1524688,
      "byteStride": 16,
      "name": "floatBufferViews",
      "target": 34962
    }
  ],
  "buffers": [
    {
      "byteLength": 1872016,
      "uri": "scene.bin"
    }
  ],
  "images": [
    {
      "uri": "textures/FLOOR_baseColor.png"
    },
    {
      "uri": "textures/WOOD_metallicRoughness.png"
    },
    {
      "uri": "textures/WOOD_baseColor.jpeg"
    },
    {
      "uri": "textures/FABRIC_metallicRoughness.png"
    },
    {
      "uri": "textures/FABRIC_baseColor.jpeg"
    }
  ],
  "materials": [
    {
      "alphaMode": "BLEND",
      "doubleSided": true,
      "emissiveFactor": [
        0,
        0,
        0
      ],
      "name": "FLOOR",
      "pbrMetallicRoughness": {
        "baseColorFactor": [
          0,
          0,
          0,
          1
        ],
        "baseColorTexture": {
          "index": 0,
          "texCoord": 0
        },
        "metallicFactor": 0,
        "roughnessFactor": 1
      }
    },
    {
      "doubleSided": true,
      "emissiveFactor": [
        0,
        0,
        0
      ],
      "name": "FABRIC",
      "occlusionTexture": {
        "index": 3,
        "strength": 0.72122713409999994,
        "texCoord": 0
      },
      "pbrMetallicRoughness": {
        "baseColorFactor": [
          1,
          1,
          1,
          1
        ],
        "baseColorTexture": {
          "index": 4,
          "texCoord": 0
        },
        "metallicFactor": 0,
        "roughnessFactor": 1
      }
    },
    {
      "doubleSided": true,
      "emissiveFactor": [
        0,
        0,
        0
      ],
      "name": "WOOD",
      "occlusionTexture": {
        "index": 1,
        "strength": 1,
        "texCoord": 0
      },
      "pbrMetallicRoughness": {
        "baseColorFactor": [
          1,
          1,
          1,
          1
        ],
        "baseColorTexture": {
          "index": 2,
          "texCoord": 0
        },
        "metallicFactor": 0,
        "roughnessFactor": 0.45903201220000001
      }
    }
  ],
  "meshes": [
    {
      "name": "Plane001_FLOOR_0",
      "primitives": [
        {
          "attributes": {
            "NORMAL": 1,
            "POSITION": 0,
            "TANGENT": 2,
            "TEXCOORD_0": 3
          },
          "indices": 4,
          "material": 0,
          "mode": 4
        }
      ]
    },
    {
      "name": "Flick_Accent_Chair_FABRIC_0",
      "primitives": [
        {
          "attributes": {
            "NORMAL": 6,
            "POSITION": 5,
            "TANGENT": 7,
            "TEXCOORD_0": 8,
            "TEXCOORD_1": 9,
            "TEXCOORD_2": 10
          },
          "indices": 11,
          "material": 1,
          "mode": 4
        }
      ]
    },
    {
      "name": "Flick_Accent_Chair_WOOD_0",
      "primitives": [
        {
          "attributes": {
            "NORMAL": 13,
            "POSITION": 12,
            "TANGENT": 14,
            "TEXCOORD_0": 15,
            "TEXCOORD_1": 16
          },
          "indices": 17,
          "material": 2,
          "mode": 4
        }
      ]
    }
  ],
  "nodes": [
    {
      "children": [
        1
      ],
      "name": "RootNode (gltf orientation matrix)",
      "rotation": [
        -0.70710678118654746,
        -0,
        -0,
        0.70710678118654757
      ]
    },
    {
      "children": [
        2
      ],
      "name": "RootNode (model correction matrix)"
    },
    {
      "children": [
        3
      ],
      "matrix": [
        1,
        0,
        0,
        0,
        0,
        0,
        1,
        0,
        0,
        -1,
        0,
        0,
        0,
        0,
        0,
        1
      ],
      "name": "7b936c621f984730ae4143b73b0c9d44.fbx"
    },
    {
      "children": [
        4,
        6
      ],
      "name": "RootNode"
    },
    {
      "children": [
        5
      ],
      "matrix": [
        1,
        0,
        0,
        0,
        0,
        2.2204460492503131e-16,
        -1,
        0,
        0,
        1,
        2.2204460492503131e-16,
        0,
        0,
        0,
        0,
        1
      ],
      "name": "Plane001"
    },
    {
      "mesh": 0,
      "name": "Plane001_FLOOR_0"
    },
    {
      "children": [
        7,
        8
      ],
      "matrix": [
        1,
        0,
        0,
        0,
        0,
        2.2204460492503131e-16,
        -1,
        0,
        0,
        1,
        2.2204460492503131e-16,
        0,
        0,
        0.13281707465648651,
        0,
        1
      ],
      "name": "Flick_Accent_Chair"
    },
    {
      "mesh": 1,
      "name": "Flick_Accent_Chair_FABRIC_0"
    },
    {
      "mesh": 2,
      "name": "Flick_Accent_Chair_WOOD_0"
    }
  ],
  "samplers": [
    {
      "magFilter": 9729,
      "minFilter": 9987,
      "wrapS": 10497,
      "wrapT": 10497
    }
  ],
  "scene": 0,
  "scenes": [
    {
      "name": "OSG_Scene",
      "nodes": [
        0
      ]
    }
  ],
  "textures": [
    {
      "sampler": 0,
      "source": 0
    },
    {
      "sampler": 0,
      "source": 1
    },
    {
      "sampler": 0,
      "source": 2
    },
    {
      "sampler": 0,
      "source": 3
    },
    {
      "sampler": 0,
      "source": 4
    }
  ]
}

